<?xml version="1.0" encoding="utf-8"?>
<!-- Generator: Adobe Illustrator 26.5.0, SVG Export Plug-In . SVG Version: 6.00 Build 0)  -->
<svg version="1.1" id="Layer_1" xmlns="http://www.w3.org/2000/svg" xmlns:xlink="http://www.w3.org/1999/xlink" x="0px" y="0px"
	 viewBox="0 0 500 500" style="enable-background:new 0 0 500 500;" xml:space="preserve">
<style type="text/css">
	.st0{fill:#6366F1;}
	.st1{fill:#2DD4BF;}
	.st2{fill:#F59E0B;}
</style>
<g>
	<path d="M245.3,293l13-22l-4.8-0.1L242,290.4c-1.6-0.5-3.5-0.4-5.1,0.5c-1.7,1-2.7,2.6-3,4.4l-41.6-0.4c-0.1-0.6-0.4-1.3-0.7-1.9
		c-1.5-2.7-4.7-3.7-7.5-2.7l-20.3-36c2.5-1.9,3.2-5.3,1.6-8c-0.4-0.8-1-1.4-1.7-1.9l21.2-35.9c1.9,1.1,4.3,1.2,6.3,0.1
		c1.7-1,2.7-2.6,3-4.4l40.4,0.4c0.1,0.9,0.3,1.8,0.8,2.7c1.5,2.6,4.7,3.7,7.4,2.7l10.8,19.2l4.8,0l-12.4-21.9c1.1-1.9,1.2-4.3,0-6.3
		c-1.7-3-5.5-4-8.5-2.3c-0.7,0.4-1.4,1-1.9,1.6l-42.5-0.4c-1.7-2.9-5.5-3.9-8.4-2.2c-2.5,1.5-3.6,4.4-2.8,7.1l-22.6,38.3
		c-0.9,0.1-1.8,0.3-2.7,0.8c-3,1.7-4,5.5-2.3,8.5c1.1,1.9,3,3,5.1,3.1l21.1,37.4c-1.1,1.9-1.1,4.2,0,6.2c1.7,3,5.5,4,8.5,2.3
		c1-0.6,1.8-1.5,2.4-2.4l43,0.4c1.7,2.9,5.5,3.9,8.4,2.2c3-1.7,4-5.5,2.3-8.5C245.3,293.1,245.3,293,245.3,293z"/>
	<path class="st0" d="M270.7,392.5c-4.7-1.6-6.9-5.3-6.9-5.3l-18.7-32.7l-7.5,17.2c0,0,15.8,27.5,17.2,30.1c3.7,6.4,10,6,10,6
		l46.8,0.1c0,0-42.1-73.5-53.3-93.2c-3.5,3.5-7.9,6-12.6,7.1l40.3,70.7c0,0-7.1,0.8-9.8,0.8C274.1,393.3,272.2,393,270.7,392.5"/>
	<path class="st1" d="M182.5,178.6l-40-70.4c0,0,7.1-0.7,9.9-0.8c8.7-0.5,12.4,6.1,12.4,6.1l18.6,32.8l7.5-17.2
		c0,0-15.8-27.5-17.2-30.2c-3.7-6.4-10-6.1-10-6.1L117,92.8c0,0,42.3,74.2,53.2,93.6C173.6,182.6,177.9,180,182.5,178.6z"/>
	<path class="st0" d="M246.3,179.3c2.3,0.6,4.6,1.4,6.8,2.6c2.2,1.2,4.2,2.7,5.9,4.4l41.3-69.6c0,0,4.2,5.8,5.6,8.2
		c4.7,7.3,0.9,13.8,0.9,13.8l-19.2,32.5l18.6-2c0,0,16.1-27.4,17.7-29.9c3.8-6.4,0.3-11.7,0.3-11.7l-23.1-40.7
		C300.9,86.9,257.9,159.9,246.3,179.3z"/>
	<path class="st1" d="M102.4,372.6l23.4,40.5c0,0,42-72.5,53.7-92.5c-1.9-0.5-3.8-1.3-5.6-2.3c-2.6-1.4-4.8-3.2-6.7-5.2l-40.9,70.3
		c0,0-4.2-5.7-5.6-8.1c-4.8-7.2-1-13.8-1-13.8l18.9-32.6l-18.6,2.2c0,0-15.9,27.5-17.4,30C98.8,367.3,102.4,372.6,102.4,372.6z"/>
	<path class="st0" d="M135.6,256.5c-0.6-2.7-0.8-5.6-0.5-8.5c0.2-2.1,0.6-4.1,1.3-5.9l-81.6-0.8c0,0,2.9-6.5,4.3-8.9
		c3.9-7.7,11.5-7.7,11.5-7.7l37.7,0.3l-11.1-15.1c0,0-31.7-0.2-34.7-0.3c-7.4-0.1-10.3,5.6-10.3,5.6l-23.6,40.4
		C28.6,255.6,112.5,256.3,135.6,256.5z"/>
	<path class="st2" d="M242.3,216.7c-0.3,0-0.6,0.1-0.9,0.1c-6.9,0.2-12.7-5.3-12.8-12.2s5.3-12.7,12.2-12.8
		c6.9-0.2,12.7,5.3,12.8,12.2c0.1,2.6-0.7,5-2,7.1l6,9.8c4.4-4.4,7-10.5,6.9-17.2c-0.4-12.9-11.1-23.1-24-22.8
		c-12.9,0.4-23.1,11.1-22.8,24c0.4,12.9,11.1,23.1,24,22.8c2.3-0.1,4.5-0.5,6.6-1.1L242.3,216.7z"/>
	<path class="st2" d="M228.5,291.4c0.1-0.3,0.2-0.6,0.4-0.8c3.1-6.1,10.7-8.6,16.8-5.4c6.1,3.1,8.6,10.7,5.4,16.8
		c-3.1,6.1-10.7,8.6-16.8,5.4c-2.3-1.2-4.1-3-5.3-5.1l-11.5,0.5c1.7,6,5.8,11.2,11.8,14.3c11.5,5.9,25.6,1.3,31.5-10.2
		c5.9-11.5,1.3-25.6-10.2-31.5c-11.5-5.9-25.6-1.3-31.5,10.2c-1.1,2.1-1.8,4.2-2.2,6.3L228.5,291.4z"/>
	<path class="st2" d="M184.9,283.5c0.3,0,0.6,0,0.9-0.1c6.9-0.2,12.6,5.3,12.8,12.2c0.2,6.9-5.3,12.6-12.2,12.8s-12.6-5.3-12.8-12.2
		c-0.1-2.6,0.7-5,2-7l-6-9.9c-4.4,4.4-7.1,10.5-6.9,17.2c0.3,12.9,11,23.2,23.9,22.9s23.2-11,22.9-23.9c-0.3-12.9-11-23.2-23.9-22.9
		c-2.3,0.1-4.5,0.4-6.6,1.1L184.9,283.5z"/>
	<path class="st2" d="M169.9,241.8c0.2,0.2,0.4,0.5,0.5,0.7c3.8,5.8,2.1,13.5-3.6,17.3c-5.8,3.8-13.5,2.1-17.3-3.6
		c-3.8-5.8-2.1-13.5,3.6-17.3c2.2-1.4,4.6-2.1,7-2l5.2-10.3c-6-1.4-12.6-0.5-18.2,3.2c-10.8,7.1-13.9,21.6-6.8,32.4
		S162,276,172.8,269c10.8-7.1,13.9-21.6,6.8-32.4c-1.3-1.9-2.8-3.6-4.4-5L169.9,241.8z"/>
	<path class="st2" d="M199.6,208c-0.1,0.3-0.2,0.6-0.4,0.8c-3.1,6.1-10.7,8.6-16.8,5.5c-6.1-3.1-8.6-10.7-5.5-16.8
		c3.1-6.1,10.7-8.6,16.8-5.5c2.3,1.2,4.1,3,5.3,5.1l11.5-0.6c-1.8-6-5.9-11.2-11.8-14.2c-11.5-5.9-25.6-1.3-31.5,10.2
		s-1.3,25.6,10.2,31.5c11.5,5.9,25.6,1.3,31.5-10.2c1-2.1,1.8-4.2,2.2-6.4L199.6,208z"/>
	<path d="M214.7,268.7c-5,0-8.7-1.1-11.2-3.3c-2.5-2.2-3.8-5.1-3.9-8.6h4.5c0.2,2.6,1.3,4.6,3.3,5.8c2,1.3,4.3,1.9,7.1,1.9
		c2.6,0,4.7-0.5,6.3-1.6c1.6-1.1,2.4-2.5,2.4-4.4c0-1.9-0.8-3.4-2.5-4.2c-1.7-0.9-4.5-1.8-8.5-2.6c-4-0.9-6.9-2.1-8.7-3.6
		c-1.8-1.5-2.6-3.6-2.6-6.1c0-2.9,1.1-5.2,3.4-7c2.3-1.8,5.3-2.7,9.1-2.7c4,0,7.2,0.9,9.6,2.8c2.4,1.8,3.7,4.5,3.9,7.8h-4.6
		c-0.5-4.3-3.4-6.4-8.8-6.4c-2.6,0-4.6,0.5-6,1.5c-1.4,1-2.1,2.3-2.1,3.9c0,1.5,0.6,2.6,1.7,3.3c1.1,0.7,3.3,1.5,6.4,2.1
		c3.1,0.7,5.6,1.4,7.5,2c1.8,0.7,3.4,1.7,4.7,3.1c1.3,1.4,2,3.3,2,5.7c0,3-1.2,5.6-3.6,7.6C221.7,267.7,218.5,268.7,214.7,268.7z"/>
	<path d="M252.8,262.6h-4.2l-8.6-12.1l-3.8,3.7v8.4H233v-24.3h3.2v12l11.8-12h4.3l-10.2,10L252.8,262.6z"/>
	<path d="M259.2,262.6H256v-24.3h3.2V262.6z"/>
	<path d="M280,262.6h-15v-24.3h3.2v21.4H280V262.6z"/>
	<path d="M298.9,262.6h-15v-24.3h3.2v21.4h11.8V262.6z"/>
	<path d="M311.9,263c-3.4,0-6-0.8-7.7-2.3c-1.7-1.5-2.6-3.5-2.7-5.9h3.1c0.2,1.8,0.9,3.1,2.3,4c1.3,0.9,3,1.3,4.9,1.3
		c1.8,0,3.2-0.4,4.3-1.1c1.1-0.7,1.6-1.7,1.6-3c0-1.3-0.6-2.3-1.7-2.9c-1.1-0.6-3.1-1.2-5.9-1.8c-2.8-0.6-4.8-1.4-6-2.5
		c-1.2-1-1.8-2.4-1.8-4.2c0-2,0.8-3.6,2.4-4.8c1.6-1.3,3.7-1.9,6.3-1.9c2.7,0,4.9,0.6,6.6,1.9c1.7,1.3,2.6,3.1,2.7,5.4h-3.1
		c-0.3-2.9-2.3-4.4-6-4.4c-1.8,0-3.2,0.3-4.2,1c-1,0.7-1.5,1.6-1.5,2.7c0,1,0.4,1.8,1.2,2.3c0.8,0.5,2.3,1,4.4,1.5
		c2.2,0.5,3.9,0.9,5.1,1.4c1.3,0.5,2.4,1.2,3.3,2.2c0.9,1,1.4,2.3,1.4,3.9c0,2.1-0.8,3.8-2.5,5.2C316.7,262.3,314.6,263,311.9,263z"
		/>
	<path d="M368.7,232.8l-9.8,35.3h-4.5l-8.5-30.7l-8.5,30.7H333l-9.8-35.3h4.9l7.1,28.7l7.9-28.7h5.6l7.9,28.7l7.1-28.7H368.7z"/>
	<path d="M382.4,237.9c3.4,0,6.2,1.1,8.3,3.4c2.2,2.3,3.2,5.3,3.2,9.1c0,3.8-1.1,6.8-3.2,9.1c-2.2,2.3-4.9,3.4-8.3,3.4
		c-3.4,0-6.2-1.2-8.4-3.5c-2.2-2.3-3.3-5.3-3.3-9.1c0-3.8,1.1-6.8,3.3-9.1C376.2,239.1,379,237.9,382.4,237.9z M382.4,260.3
		c2.4,0,4.4-0.9,6-2.6c1.6-1.7,2.3-4.1,2.3-7.2s-0.8-5.5-2.3-7.2c-1.5-1.7-3.5-2.6-5.9-2.6c-2.4,0-4.4,0.9-6,2.6
		c-1.6,1.7-2.3,4.1-2.3,7.2c0,3.1,0.8,5.5,2.3,7.2C378,259.4,380,260.3,382.4,260.3z"/>
	<path d="M418.5,262.6H415l-2.3-6.5c-0.4-1.1-1.1-2.1-2-2.8c-0.9-0.7-2-1.1-3.3-1.1h-5.9v10.4h-3.2v-24.3H409c1.9,0,3.4,0.2,4.6,0.5
		c1.2,0.4,2.2,1.1,2.9,2.3c0.8,1.2,1.1,2.5,1.1,4c0,1.7-0.5,3.1-1.5,4.2c-1,1.1-2.3,1.9-4,2.2v0.1c1.7,0.5,3,2,3.9,4.4L418.5,262.6z
		 M401.5,249.3h7.2c2,0,3.4-0.3,4.3-0.9c0.9-0.6,1.3-1.7,1.3-3.3c0-2.8-1.7-4.1-5.2-4.1h-7.7V249.3z"/>
	<path d="M442.6,262.6h-4.2l-8.6-12.1l-3.8,3.7v8.4h-3.2v-24.3h3.2v12l11.8-12h4.3l-10.2,10L442.6,262.6z"/>
	<path d="M471.4,268.1h-27.9v-4.4l21.9-26.7h-19.9v-4.2h25.3v4.4l-21.9,26.7h22.5V268.1z"/>
	<path d="M204.5,270.3l-5.1-2.7l-6.1-9.7l-0.5-12.2l5.4-10.3l10.1-6.3l11.9-0.5l4.7,2.5l3.1-5.9c-0.8-0.2-1.6-0.1-2.3,0.4
		c-0.4,0.2-0.6,0.5-0.9,0.8l-4.1,0.2l-3-1.6c-0.1-1.6-1.5-2.9-3.2-2.8c-1.4,0.1-2.6,1.1-2.8,2.5l-4,2.5l-3.5,0.1
		c-0.9-1.4-2.8-1.7-4.1-0.8c-1.2,0.8-1.7,2.3-1.2,3.5l-2.1,4.1l-3.3,2.1c-0.4-0.2-0.9-0.3-1.3-0.2c-1.7,0.1-3,1.5-2.9,3.2
		c0.1,1.1,0.6,2,1.5,2.5l0.1,3.8l-2,3.8c-0.4,0.1-0.9,0.2-1.3,0.5c-1.4,0.9-1.8,2.8-0.9,4.2c0.6,0.9,1.5,1.4,2.5,1.4l2.2,3.4
		l0.1,3.9c-0.9,0.6-1.4,1.6-1.4,2.7c0.1,1.7,1.5,3,3.2,2.9c0.6,0,1.1-0.2,1.6-0.5l3.2,1.7l2.3,3.7c-0.5,0.9-0.5,2.1,0.2,3
		c0.2,0.3,0.5,0.6,0.8,0.8L204.5,270.3z M224.3,228.4C224.3,228.5,224.3,228.5,224.3,228.4L224.3,228.4L224.3,228.4z M212,226.7
		c0,0.1,0.1,0.1,0.1,0.2l-0.4,0L212,226.7z M200.2,231.6c0.1,0,0.1,0.1,0.2,0.1l-0.3,0.2L200.2,231.6z M190.8,249.6l0.1-0.3l0,0.4
		C190.9,249.7,190.8,249.6,190.8,249.6z M191,254.4C191.1,254.4,191.1,254.4,191,254.4L191,254.4L191,254.4z M193.4,261.9
		L193.4,261.9L193.4,261.9C193.4,261.9,193.4,261.9,193.4,261.9z M201.8,271.4l-0.2-0.4l0.5,0.3C202,271.3,201.9,271.3,201.8,271.4z
		"/>
</g>
</svg>
